<mxfile host="app.diagrams.net" agent="Mozilla/5.0 (Macintosh; Intel Mac OS X 10_15_7) AppleWebKit/537.36 (KHTML, like Gecko) Chrome/128.0.0.0 Safari/537.36" version="24.7.14">
  <diagram name="Page-1" id="TXeM6uJedsIoV25RlZRR">
    <mxGraphModel dx="954" dy="552" grid="1" gridSize="10" guides="1" tooltips="1" connect="1" arrows="1" fold="1" page="1" pageScale="1" pageWidth="850" pageHeight="1100" math="0" shadow="0">
      <root>
        <mxCell id="0" />
        <mxCell id="1" parent="0" />
        <object label="" Controller="Recebe os dados do Cliente (Nome, CPF e CEP)." id="2JYLiK6wzvIR3PJllCn4-3">
          <mxCell style="swimlane;startSize=0;rounded=1;" vertex="1" parent="1">
            <mxGeometry x="31" y="592" width="320" height="460" as="geometry" />
          </mxCell>
        </object>
        <object label="Kafka Consumer&lt;br&gt;(adapter)" Consumer="Recebe a mensagem com o CPF Validado" id="qjCMe6g5fWZ3PzChp8vG-18">
          <mxCell style="rounded=1;whiteSpace=wrap;html=1;" parent="2JYLiK6wzvIR3PJllCn4-3" vertex="1">
            <mxGeometry x="40" y="270" width="120" height="60" as="geometry" />
          </mxCell>
        </object>
        <mxCell id="2JYLiK6wzvIR3PJllCn4-9" value="Adapters primários&lt;div&gt;(entradas da aplicação)&lt;/div&gt;" style="text;html=1;align=center;verticalAlign=middle;resizable=0;points=[];autosize=1;strokeColor=none;fillColor=none;rounded=1;" vertex="1" parent="2JYLiK6wzvIR3PJllCn4-3">
          <mxGeometry x="85" y="3" width="150" height="40" as="geometry" />
        </mxCell>
        <object label="Controller&lt;br&gt;(adapter)" Controller="Recebe os dados do cliente (nome, cpf e cep)." id="qjCMe6g5fWZ3PzChp8vG-17">
          <mxCell style="rounded=1;whiteSpace=wrap;html=1;" parent="2JYLiK6wzvIR3PJllCn4-3" vertex="1">
            <mxGeometry x="40" y="90" width="120" height="60" as="geometry" />
          </mxCell>
        </object>
        <mxCell id="2JYLiK6wzvIR3PJllCn4-57" value="" style="edgeStyle=orthogonalEdgeStyle;rounded=1;orthogonalLoop=1;jettySize=auto;html=1;" edge="1" parent="2JYLiK6wzvIR3PJllCn4-3" source="2JYLiK6wzvIR3PJllCn4-55" target="qjCMe6g5fWZ3PzChp8vG-18">
          <mxGeometry relative="1" as="geometry" />
        </mxCell>
        <mxCell id="2JYLiK6wzvIR3PJllCn4-58" value="" style="edgeStyle=orthogonalEdgeStyle;rounded=1;orthogonalLoop=1;jettySize=auto;html=1;" edge="1" parent="2JYLiK6wzvIR3PJllCn4-3" source="2JYLiK6wzvIR3PJllCn4-55" target="qjCMe6g5fWZ3PzChp8vG-18">
          <mxGeometry relative="1" as="geometry" />
        </mxCell>
        <mxCell id="2JYLiK6wzvIR3PJllCn4-55" value="Topic" style="outlineConnect=0;fontColor=#232F3E;gradientColor=none;strokeColor=#232F3E;fillColor=#ffffff;dashed=0;verticalLabelPosition=bottom;verticalAlign=top;align=center;html=1;fontSize=12;fontStyle=0;aspect=fixed;shape=mxgraph.aws4.resourceIcon;resIcon=mxgraph.aws4.topic;rounded=1;" vertex="1" parent="2JYLiK6wzvIR3PJllCn4-3">
          <mxGeometry x="81" y="368" width="38" height="38" as="geometry" />
        </mxCell>
        <mxCell id="2JYLiK6wzvIR3PJllCn4-4" value="" style="swimlane;startSize=0;fillColor=#e1d5e7;strokeColor=default;rounded=1;" vertex="1" parent="1">
          <mxGeometry x="351" y="592" width="320" height="460" as="geometry" />
        </mxCell>
        <mxCell id="qjCMe6g5fWZ3PzChp8vG-22" value="Adapter que acessa o banco de dados" style="rounded=1;whiteSpace=wrap;html=1;" parent="2JYLiK6wzvIR3PJllCn4-4" vertex="1">
          <mxGeometry x="170" y="90" width="120" height="60" as="geometry" />
        </mxCell>
        <mxCell id="2JYLiK6wzvIR3PJllCn4-2" value="Adapter que produz num tópico Kafka&amp;nbsp;" style="rounded=1;whiteSpace=wrap;html=1;" vertex="1" parent="2JYLiK6wzvIR3PJllCn4-4">
          <mxGeometry x="170" y="177" width="120" height="60" as="geometry" />
        </mxCell>
        <mxCell id="2JYLiK6wzvIR3PJllCn4-1" value="Adapter que consulta API de Endereço" style="rounded=1;whiteSpace=wrap;html=1;" vertex="1" parent="2JYLiK6wzvIR3PJllCn4-4">
          <mxGeometry x="170" y="270" width="120" height="60" as="geometry" />
        </mxCell>
        <mxCell id="2JYLiK6wzvIR3PJllCn4-10" value="Adapters secundários&lt;br&gt;(saídas da aplicação)" style="text;html=1;align=center;verticalAlign=middle;resizable=0;points=[];autosize=1;strokeColor=none;fillColor=none;rounded=1;" vertex="1" parent="2JYLiK6wzvIR3PJllCn4-4">
          <mxGeometry x="90" y="3" width="140" height="40" as="geometry" />
        </mxCell>
        <mxCell id="2JYLiK6wzvIR3PJllCn4-7" value="BD" style="shape=datastore;whiteSpace=wrap;html=1;rounded=1;" vertex="1" parent="1">
          <mxGeometry x="721" y="602" width="60" height="60" as="geometry" />
        </mxCell>
        <mxCell id="2JYLiK6wzvIR3PJllCn4-8" value="Topic" style="outlineConnect=0;fontColor=#232F3E;gradientColor=none;strokeColor=#232F3E;fillColor=#ffffff;dashed=0;verticalLabelPosition=bottom;verticalAlign=top;align=center;html=1;fontSize=12;fontStyle=0;aspect=fixed;shape=mxgraph.aws4.resourceIcon;resIcon=mxgraph.aws4.topic;rounded=1;" vertex="1" parent="1">
          <mxGeometry x="727" y="769" width="60" height="60" as="geometry" />
        </mxCell>
        <mxCell id="2JYLiK6wzvIR3PJllCn4-17" style="edgeStyle=orthogonalEdgeStyle;rounded=1;orthogonalLoop=1;jettySize=auto;html=1;exitX=1;exitY=0.25;exitDx=0;exitDy=0;entryX=0;entryY=0.5;entryDx=0;entryDy=0;" edge="1" parent="1" source="qjCMe6g5fWZ3PzChp8vG-1" target="qjCMe6g5fWZ3PzChp8vG-22">
          <mxGeometry relative="1" as="geometry" />
        </mxCell>
        <mxCell id="2JYLiK6wzvIR3PJllCn4-18" style="edgeStyle=orthogonalEdgeStyle;rounded=1;orthogonalLoop=1;jettySize=auto;html=1;exitX=1;exitY=0.5;exitDx=0;exitDy=0;entryX=0;entryY=0.5;entryDx=0;entryDy=0;" edge="1" parent="1" source="qjCMe6g5fWZ3PzChp8vG-1" target="2JYLiK6wzvIR3PJllCn4-2">
          <mxGeometry relative="1" as="geometry" />
        </mxCell>
        <mxCell id="2JYLiK6wzvIR3PJllCn4-19" style="edgeStyle=orthogonalEdgeStyle;rounded=1;orthogonalLoop=1;jettySize=auto;html=1;exitX=1;exitY=0.75;exitDx=0;exitDy=0;entryX=0;entryY=0.5;entryDx=0;entryDy=0;" edge="1" parent="1" source="qjCMe6g5fWZ3PzChp8vG-1" target="2JYLiK6wzvIR3PJllCn4-1">
          <mxGeometry relative="1" as="geometry" />
        </mxCell>
        <mxCell id="qjCMe6g5fWZ3PzChp8vG-1" value="" style="shape=hexagon;perimeter=hexagonPerimeter2;whiteSpace=wrap;html=1;fixedSize=1;rounded=1;" parent="1" vertex="1">
          <mxGeometry x="241" y="722" width="230" height="200" as="geometry" />
        </mxCell>
        <object label="Porta de entrada" Interface="que mantém os dados do Cliente" id="qjCMe6g5fWZ3PzChp8vG-3">
          <mxCell style="text;html=1;align=center;verticalAlign=middle;whiteSpace=wrap;rounded=1;rotation=105;" parent="1" vertex="1">
            <mxGeometry x="243" y="765" width="60" height="30" as="geometry" />
          </mxCell>
        </object>
        <object label="Porta de entrada" Interface="que valida o CEP do cliente" id="qjCMe6g5fWZ3PzChp8vG-4">
          <mxCell style="text;html=1;align=center;verticalAlign=middle;whiteSpace=wrap;rounded=1;rotation=75;" parent="1" vertex="1">
            <mxGeometry x="241" y="852" width="60" height="30" as="geometry" />
          </mxCell>
        </object>
        <mxCell id="qjCMe6g5fWZ3PzChp8vG-5" value="Porta de&lt;br&gt;&amp;nbsp;saída" style="text;html=1;align=center;verticalAlign=middle;resizable=0;points=[];autosize=1;strokeColor=none;fillColor=none;rotation=-105;rounded=1;" parent="1" vertex="1">
          <mxGeometry x="408" y="760" width="70" height="40" as="geometry" />
        </mxCell>
        <object label="Porta de &lt;br&gt;saída" Interface="de saída para cosultar base dados, produzir num tópico e consultar uma api" id="qjCMe6g5fWZ3PzChp8vG-6">
          <mxCell style="text;html=1;align=center;verticalAlign=middle;resizable=0;points=[];autosize=1;strokeColor=none;fillColor=none;rotation=-80;rounded=1;" parent="1" vertex="1">
            <mxGeometry x="406" y="847" width="70" height="40" as="geometry" />
          </mxCell>
        </object>
        <mxCell id="qjCMe6g5fWZ3PzChp8vG-12" value="Lógica de&amp;nbsp;&lt;span style=&quot;background-color: initial;&quot;&gt;Negócio&lt;br&gt;(domínio)&lt;/span&gt;" style="shape=hexagon;perimeter=hexagonPerimeter2;whiteSpace=wrap;html=1;fixedSize=1;rounded=1;" parent="1" vertex="1">
          <mxGeometry x="281" y="752" width="150" height="140" as="geometry" />
        </mxCell>
        <mxCell id="2JYLiK6wzvIR3PJllCn4-11" style="edgeStyle=orthogonalEdgeStyle;rounded=1;orthogonalLoop=1;jettySize=auto;html=1;exitX=1;exitY=0.5;exitDx=0;exitDy=0;entryX=0.5;entryY=1;entryDx=0;entryDy=0;" edge="1" parent="1" source="qjCMe6g5fWZ3PzChp8vG-22" target="2JYLiK6wzvIR3PJllCn4-7">
          <mxGeometry relative="1" as="geometry" />
        </mxCell>
        <mxCell id="2JYLiK6wzvIR3PJllCn4-12" style="edgeStyle=orthogonalEdgeStyle;rounded=1;orthogonalLoop=1;jettySize=auto;html=1;exitX=1;exitY=0.5;exitDx=0;exitDy=0;" edge="1" parent="1" source="2JYLiK6wzvIR3PJllCn4-2" target="2JYLiK6wzvIR3PJllCn4-8">
          <mxGeometry relative="1" as="geometry" />
        </mxCell>
        <mxCell id="2JYLiK6wzvIR3PJllCn4-13" value="" style="sketch=0;outlineConnect=0;fontColor=#232F3E;gradientColor=none;fillColor=#000000;strokeColor=none;dashed=0;verticalLabelPosition=bottom;verticalAlign=top;align=center;html=1;fontSize=12;fontStyle=0;aspect=fixed;pointerEvents=1;shape=mxgraph.aws4.http_protocol;rounded=1;" vertex="1" parent="1">
          <mxGeometry x="733" y="902" width="48" height="48" as="geometry" />
        </mxCell>
        <mxCell id="2JYLiK6wzvIR3PJllCn4-14" style="edgeStyle=orthogonalEdgeStyle;rounded=1;orthogonalLoop=1;jettySize=auto;html=1;exitX=1;exitY=0.5;exitDx=0;exitDy=0;" edge="1" parent="1" source="2JYLiK6wzvIR3PJllCn4-1" target="2JYLiK6wzvIR3PJllCn4-13">
          <mxGeometry relative="1" as="geometry" />
        </mxCell>
        <mxCell id="2JYLiK6wzvIR3PJllCn4-15" style="edgeStyle=orthogonalEdgeStyle;rounded=1;orthogonalLoop=1;jettySize=auto;html=1;exitX=1;exitY=0.5;exitDx=0;exitDy=0;entryX=0;entryY=0.25;entryDx=0;entryDy=0;" edge="1" parent="1" source="qjCMe6g5fWZ3PzChp8vG-17" target="qjCMe6g5fWZ3PzChp8vG-1">
          <mxGeometry relative="1" as="geometry" />
        </mxCell>
        <mxCell id="2JYLiK6wzvIR3PJllCn4-16" style="edgeStyle=orthogonalEdgeStyle;rounded=1;orthogonalLoop=1;jettySize=auto;html=1;exitX=1;exitY=0.5;exitDx=0;exitDy=0;entryX=0;entryY=0.75;entryDx=0;entryDy=0;" edge="1" parent="1" source="qjCMe6g5fWZ3PzChp8vG-18" target="qjCMe6g5fWZ3PzChp8vG-1">
          <mxGeometry relative="1" as="geometry" />
        </mxCell>
        <mxCell id="2JYLiK6wzvIR3PJllCn4-20" value="" style="swimlane;startSize=0;rounded=1;" vertex="1" parent="1">
          <mxGeometry x="30" y="70" width="320" height="460" as="geometry" />
        </mxCell>
        <mxCell id="2JYLiK6wzvIR3PJllCn4-21" value="Adaptador de entrada" style="rounded=1;whiteSpace=wrap;html=1;" vertex="1" parent="2JYLiK6wzvIR3PJllCn4-20">
          <mxGeometry x="50" y="320" width="120" height="60" as="geometry" />
        </mxCell>
        <mxCell id="2JYLiK6wzvIR3PJllCn4-22" value="Adaptadores primários&lt;div&gt;(entradas da aplicação)&lt;/div&gt;" style="text;html=1;align=center;verticalAlign=middle;resizable=0;points=[];autosize=1;strokeColor=none;fillColor=none;rounded=1;" vertex="1" parent="2JYLiK6wzvIR3PJllCn4-20">
          <mxGeometry x="85" y="3" width="150" height="40" as="geometry" />
        </mxCell>
        <mxCell id="2JYLiK6wzvIR3PJllCn4-23" value="Adaptador de&amp;nbsp;&lt;div&gt;entrada&lt;/div&gt;" style="rounded=1;whiteSpace=wrap;html=1;" vertex="1" parent="2JYLiK6wzvIR3PJllCn4-20">
          <mxGeometry x="40" y="90" width="120" height="60" as="geometry" />
        </mxCell>
        <mxCell id="2JYLiK6wzvIR3PJllCn4-24" value="" style="swimlane;startSize=0;fillColor=#e1d5e7;strokeColor=default;rounded=1;" vertex="1" parent="1">
          <mxGeometry x="350" y="70" width="320" height="460" as="geometry" />
        </mxCell>
        <mxCell id="2JYLiK6wzvIR3PJllCn4-25" value="Adapter de saída" style="rounded=1;whiteSpace=wrap;html=1;" vertex="1" parent="2JYLiK6wzvIR3PJllCn4-24">
          <mxGeometry x="170" y="90" width="120" height="60" as="geometry" />
        </mxCell>
        <mxCell id="2JYLiK6wzvIR3PJllCn4-28" value="Adaptadores secundários&lt;br&gt;(saídas da aplicação)" style="text;html=1;align=center;verticalAlign=middle;resizable=0;points=[];autosize=1;strokeColor=none;fillColor=none;rounded=1;" vertex="1" parent="2JYLiK6wzvIR3PJllCn4-24">
          <mxGeometry x="80" y="3" width="160" height="40" as="geometry" />
        </mxCell>
        <mxCell id="2JYLiK6wzvIR3PJllCn4-47" value="Adapter de saída" style="rounded=1;whiteSpace=wrap;html=1;" vertex="1" parent="2JYLiK6wzvIR3PJllCn4-24">
          <mxGeometry x="170" y="320" width="120" height="60" as="geometry" />
        </mxCell>
        <mxCell id="2JYLiK6wzvIR3PJllCn4-31" style="edgeStyle=orthogonalEdgeStyle;rounded=1;orthogonalLoop=1;jettySize=auto;html=1;exitX=1;exitY=0.25;exitDx=0;exitDy=0;entryX=0;entryY=0.5;entryDx=0;entryDy=0;" edge="1" parent="1" source="2JYLiK6wzvIR3PJllCn4-34" target="2JYLiK6wzvIR3PJllCn4-25">
          <mxGeometry relative="1" as="geometry" />
        </mxCell>
        <mxCell id="2JYLiK6wzvIR3PJllCn4-33" style="edgeStyle=orthogonalEdgeStyle;rounded=1;orthogonalLoop=1;jettySize=auto;html=1;exitX=1;exitY=0.75;exitDx=0;exitDy=0;entryX=0;entryY=0.5;entryDx=0;entryDy=0;" edge="1" parent="1" source="2JYLiK6wzvIR3PJllCn4-34" target="2JYLiK6wzvIR3PJllCn4-47">
          <mxGeometry relative="1" as="geometry">
            <mxPoint x="520" y="370" as="targetPoint" />
          </mxGeometry>
        </mxCell>
        <mxCell id="2JYLiK6wzvIR3PJllCn4-34" value="" style="shape=hexagon;perimeter=hexagonPerimeter2;whiteSpace=wrap;html=1;fixedSize=1;rounded=1;" vertex="1" parent="1">
          <mxGeometry x="240" y="200" width="230" height="200" as="geometry" />
        </mxCell>
        <mxCell id="2JYLiK6wzvIR3PJllCn4-35" value="Porta de entrada" style="text;html=1;align=center;verticalAlign=middle;whiteSpace=wrap;rounded=1;rotation=105;" vertex="1" parent="1">
          <mxGeometry x="242" y="243" width="60" height="30" as="geometry" />
        </mxCell>
        <mxCell id="2JYLiK6wzvIR3PJllCn4-36" value="Porta de entrada" style="text;html=1;align=center;verticalAlign=middle;whiteSpace=wrap;rounded=1;rotation=75;" vertex="1" parent="1">
          <mxGeometry x="240" y="330" width="60" height="30" as="geometry" />
        </mxCell>
        <mxCell id="2JYLiK6wzvIR3PJllCn4-37" value="Porta de&lt;br&gt;&amp;nbsp;saída" style="text;html=1;align=center;verticalAlign=middle;resizable=0;points=[];autosize=1;strokeColor=none;fillColor=none;rotation=-105;rounded=1;" vertex="1" parent="1">
          <mxGeometry x="407" y="238" width="70" height="40" as="geometry" />
        </mxCell>
        <mxCell id="2JYLiK6wzvIR3PJllCn4-38" value="Porta de &lt;br&gt;saída" style="text;html=1;align=center;verticalAlign=middle;resizable=0;points=[];autosize=1;strokeColor=none;fillColor=none;rotation=-80;rounded=1;" vertex="1" parent="1">
          <mxGeometry x="405" y="325" width="70" height="40" as="geometry" />
        </mxCell>
        <mxCell id="2JYLiK6wzvIR3PJllCn4-39" value="Lógica de&amp;nbsp;&lt;span style=&quot;background-color: initial;&quot;&gt;Negócio&lt;br&gt;(domínio)&lt;/span&gt;" style="shape=hexagon;perimeter=hexagonPerimeter2;whiteSpace=wrap;html=1;fixedSize=1;rounded=1;" vertex="1" parent="1">
          <mxGeometry x="280" y="230" width="150" height="140" as="geometry" />
        </mxCell>
        <mxCell id="2JYLiK6wzvIR3PJllCn4-44" style="edgeStyle=orthogonalEdgeStyle;rounded=1;orthogonalLoop=1;jettySize=auto;html=1;exitX=1;exitY=0.5;exitDx=0;exitDy=0;entryX=0;entryY=0.25;entryDx=0;entryDy=0;" edge="1" parent="1" source="2JYLiK6wzvIR3PJllCn4-23" target="2JYLiK6wzvIR3PJllCn4-34">
          <mxGeometry relative="1" as="geometry" />
        </mxCell>
        <mxCell id="2JYLiK6wzvIR3PJllCn4-45" style="edgeStyle=orthogonalEdgeStyle;rounded=1;orthogonalLoop=1;jettySize=auto;html=1;exitX=1;exitY=0.5;exitDx=0;exitDy=0;entryX=0;entryY=0.75;entryDx=0;entryDy=0;" edge="1" parent="1" source="2JYLiK6wzvIR3PJllCn4-21" target="2JYLiK6wzvIR3PJllCn4-34">
          <mxGeometry relative="1" as="geometry" />
        </mxCell>
        <mxCell id="2JYLiK6wzvIR3PJllCn4-48" value="&lt;font style=&quot;font-size: 14px;&quot;&gt;Arquitetura Hexagonal&lt;/font&gt;" style="text;html=1;align=center;verticalAlign=middle;resizable=0;points=[];autosize=1;strokeColor=none;fillColor=none;" vertex="1" parent="1">
          <mxGeometry x="260" y="18" width="160" height="30" as="geometry" />
        </mxCell>
        <mxCell id="2JYLiK6wzvIR3PJllCn4-54" value="&lt;font style=&quot;font-size: 14px;&quot;&gt;Hexagonal da Aplicação&lt;/font&gt;" style="text;html=1;align=center;verticalAlign=middle;resizable=0;points=[];autosize=1;strokeColor=none;fillColor=none;" vertex="1" parent="1">
          <mxGeometry x="271" y="560" width="170" height="30" as="geometry" />
        </mxCell>
      </root>
    </mxGraphModel>
  </diagram>
</mxfile>
